<?xml version="1.0" standalone="no"?>
<!DOCTYPE svg PUBLIC "-//W3C//DTD SVG 20010904//EN"
 "http://www.w3.org/TR/2001/REC-SVG-20010904/DTD/svg10.dtd">
<svg version="1.0" xmlns="http://www.w3.org/2000/svg"
 width="1200.000000pt" height="1200.000000pt" viewBox="0 0 1200.000000 1200.000000"
 preserveAspectRatio="xMidYMid meet">

<g transform="translate(0.000000,1200.000000) scale(0.100000,-0.100000)"
fill="#000000" stroke="none">
<path d="M6360 10791 c-124 -38 -201 -138 -201 -259 0 -43 122 -525 505 -2002
278 -1070 512 -1959 520 -1976 44 -95 138 -154 247 -154 96 0 143 27 277 163
138 141 157 176 156 297 -1 79 -35 218 -458 1840 -324 1244 -465 1768 -484
1803 -14 27 -45 64 -67 82 -51 41 -296 183 -348 201 -42 15 -106 17 -147 5z"/>
<path d="M5290 10677 c-144 -41 -226 -158 -218 -310 6 -118 64 -208 167 -259
37 -18 63 -23 131 -23 94 0 136 16 205 77 86 74 118 217 75 330 -53 142 -217
226 -360 185z"/>
<path d="M7850 9931 c-84 -26 -141 -74 -182 -155 -44 -84 -44 -83 246 -1191
182 -696 275 -1033 292 -1062 67 -115 229 -162 349 -100 69 35 268 238 296
302 49 110 54 85 -190 1013 -124 473 -232 864 -245 890 -37 71 -87 113 -250
206 -183 105 -235 121 -316 97z"/>
<path d="M3915 9886 c-117 -57 -278 -154 -317 -191 -49 -48 -71 -98 -76 -172
-8 -116 48 -217 144 -261 27 -12 501 -147 1054 -299 827 -228 1016 -277 1066
-276 132 2 242 103 259 239 5 38 -1 80 -30 189 -20 77 -47 164 -61 192 -28 58
-88 116 -149 143 -22 10 -412 120 -866 244 -937 256 -905 250 -1024 192z"/>
<path d="M2460 9041 c-67 -26 -310 -169 -348 -205 -49 -46 -74 -101 -80 -177
-4 -57 -1 -75 22 -125 30 -65 55 -95 101 -124 37 -23 3934 -1100 3979 -1100
146 0 269 126 268 272 -1 76 -62 304 -97 365 -37 63 -108 119 -178 142 -34 11
-837 234 -1784 496 -1846 509 -1785 495 -1883 456z"/>
<path d="M9385 9027 c-62 -21 -97 -42 -136 -84 -63 -65 -83 -117 -83 -208 0
-72 3 -86 34 -143 60 -113 158 -168 285 -160 115 8 203 65 252 166 37 76 39
181 5 258 -60 133 -228 213 -357 171z"/>
<path d="M10001 8138 c-31 -15 -329 -304 -1035 -1001 -1678 -1660 -1907 -1889
-1927 -1932 -12 -27 -19 -63 -19 -110 0 -138 70 -226 215 -270 138 -41 237
-65 275 -65 49 0 137 27 178 55 18 12 618 600 1333 1306 1195 1181 1303 1289
1332 1349 l32 65 0 215 c0 214 0 215 -27 266 -51 96 -131 144 -243 143 -50 0
-82 -6 -114 -21z"/>
<path d="M1783 7929 c-64 -25 -137 -93 -166 -157 -32 -69 -31 -189 2 -256 31
-63 84 -115 146 -146 73 -35 190 -34 260 2 109 57 169 154 169 273 -1 215
-212 361 -411 284z"/>
<path d="M3018 7607 c-26 -8 -64 -25 -85 -39 -21 -14 -318 -303 -660 -642
-529 -525 -626 -626 -650 -674 -27 -55 -28 -63 -31 -249 -5 -242 4 -280 82
-358 80 -80 167 -102 277 -69 61 18 35 -7 1053 1004 603 598 596 590 596 705
0 97 -59 198 -140 240 -46 24 -281 87 -340 91 -30 2 -76 -2 -102 -9z"/>
<path d="M4359 7221 c-26 -10 -56 -25 -68 -33 -12 -8 -609 -595 -1327 -1304
-1198 -1184 -1308 -1294 -1337 -1354 l-32 -64 -3 -188 c-3 -147 0 -199 12
-240 33 -116 123 -187 246 -196 129 -9 64 -66 1156 1013 1774 1754 1915 1896
1937 1945 25 55 26 158 3 213 -22 49 -81 114 -125 137 -20 10 -95 34 -167 54
-148 41 -223 45 -295 17z"/>
<path d="M10010 6419 c-48 -21 -77 -49 -1044 -1009 -433 -429 -544 -545 -562
-585 -43 -91 -26 -204 43 -284 46 -54 83 -72 239 -116 157 -44 255 -46 337 -6
36 17 205 179 677 648 532 528 634 633 657 681 l28 57 0 220 0 220 -29 53
c-68 122 -224 176 -346 121z"/>
<path d="M4445 5577 c-34 -17 -87 -63 -166 -143 -130 -133 -159 -187 -159
-290 0 -76 897 -3541 940 -3629 16 -33 44 -74 62 -91 55 -52 343 -212 396
-220 106 -16 219 37 277 130 23 38 30 63 33 115 4 61 -35 216 -503 2016 -279
1073 -513 1964 -519 1980 -19 45 -63 92 -113 122 -67 39 -178 44 -248 10z"/>
<path d="M5779 4686 c-120 -43 -189 -135 -189 -253 0 -68 56 -288 91 -358 26
-52 79 -105 136 -133 67 -34 3552 -992 3608 -992 76 0 109 13 271 105 217 124
264 181 264 321 0 102 -65 202 -156 240 -72 30 -3914 1084 -3950 1084 -21 -1
-55 -7 -75 -14z"/>
<path d="M9982 4644 c-61 -23 -145 -103 -173 -166 -30 -70 -30 -172 -1 -240
29 -66 93 -132 155 -159 73 -32 183 -32 249 0 63 30 125 92 151 149 31 68 31
200 -1 259 -58 109 -144 165 -262 170 -50 2 -89 -3 -118 -13z"/>
<path d="M3500 4601 c-66 -14 -115 -49 -227 -163 -139 -142 -158 -177 -157
-298 1 -78 20 -157 217 -903 119 -450 226 -839 238 -864 12 -26 39 -63 58 -82
47 -47 325 -207 385 -222 163 -41 328 90 328 260 0 41 -69 322 -261 1061 -144
553 -269 1024 -278 1048 -42 112 -184 188 -303 163z"/>
<path d="M2429 3556 c-96 -34 -168 -109 -195 -205 -72 -244 178 -465 410 -362
64 28 130 93 157 154 31 72 31 172 0 245 -61 138 -236 217 -372 168z"/>
<path d="M6132 3312 c-73 -26 -122 -69 -156 -135 -39 -76 -38 -144 7 -308 51
-187 96 -258 197 -306 59 -28 1660 -464 1727 -470 35 -3 82 0 110 6 48 13 322
165 373 208 78 65 104 215 56 319 -28 61 -92 118 -155 138 -126 41 -2022 558
-2061 562 -29 3 -64 -2 -98 -14z"/>
<path d="M6534 1919 c-87 -25 -181 -122 -205 -212 -17 -62 -6 -154 24 -213 55
-109 151 -168 272 -168 85 0 144 24 208 83 158 146 102 425 -99 501 -58 21
-145 25 -200 9z"/>
</g>
</svg>
